<svg version="1.2" height="200" width="200"
     xmlns="http://www.w3.org/2000/svg"
     xmlns:xlink="http://www.w3.org/1999/xlink">
  <defs>
    <g id="jo">
	<circle cx="150" cy="50" r="38" />
	<path d="M 13 13 q 53 56 85 0 m 0 0 l 0 54 c 0 19 -44 57 -86 5" />
    </g>
    <g id="half">
      <g stroke="white" stroke-width="14" stroke-linecap="round" fill="none">
	<use xlink:href="#jo" />
      </g>
      <g stroke="black" stroke-width="12" stroke-linecap="round" fill="none">
	<use xlink:href="#jo" />
      </g>
    </g>
  </defs>
  <use xlink:href="#half" />
  <use xlink:href="#half" transform="rotate(180,100,100)" />
  <path stroke="#a00" fill="#d66"
	d="M 0 200 L 0,193 10,184 20,140 25,100 30,134 40,160 50,155 60,138 65,100 70,105 75,50 80,100 90,135 95,150 100,90 103,105 108,85 115,103 120,70 125,90 140,55 145,90 155,70 165,106 175,164 185,184 200,191 200,200 z" />
  <path stroke="#aa0" fill="#dd6"
	d="M 0 200 L 0,193 10,184 20,140 30,135 40,160 50,155 60,140 90,135 95,150 120,110 165,107 175,164 185,184 200,191 200,200 z" />
  <path stroke="#0a0" fill="#6d6"
	d="M 0 200 L 0,193 10,185 50,165 90,160 150,155 172,150 175,165 185,184 200,191 200,200 z" />
  <path stroke="#00c" fill="#66e"
	d="M 0 200 L 0,195 10,190 50,187 90,188 150,187 185,184 200,191 200,200 z" />
  <path stroke="#000" fill="none"
	d="M 0 200 L 0,193 10,184 20,140 25,100 30,134 40,160 50,155 60,138 65,100 70,105 75,50 80,100 90,135 95,150 100,90 103,105 108,85 115,103 120,70 125,90 140,55 145,90 155,70 165,106 175,164 185,184 200,191 200,200 z" />
</svg>
